<?xml version="1.0" encoding="iso-8859-1"?>
<!-- Uploaded to: SVG Repo, www.svgrepo.com, Generator: SVG Repo Mixer Tools -->
<!DOCTYPE svg PUBLIC "-//W3C//DTD SVG 1.1//EN" "http://www.w3.org/Graphics/SVG/1.1/DTD/svg11.dtd">
<svg version="1.1" id="Capa_1" xmlns="http://www.w3.org/2000/svg" xmlns:xlink="http://www.w3.org/1999/xlink" 
	 width="800px" height="800px" viewBox="0 0 236.159 236.16"
	 xml:space="preserve">
<g>
	<path style="fill:#030303;" d="M232.771,16.594c0-9.146-7.445-16.588-16.588-16.588S199.59,7.448,199.59,16.594
		c0,5.704,2.894,10.733,7.291,13.723c-0.058,0.065-0.138,0.105-0.195,0.171l-40.003,49.692l-18.606-47.714
		c6.931-1.99,12.054-8.314,12.054-15.873c0-9.146-7.444-16.588-16.594-16.588c-9.154,0-16.594,7.442-16.594,16.588
		c0,6.856,4.186,12.751,10.127,15.276c-0.006,0.017-0.018,0.031-0.028,0.042l-18.33,44.143L101.58,32.109
		c6.342-2.33,10.896-8.379,10.896-15.516c0-9.146-7.442-16.588-16.588-16.588S79.3,7.448,79.3,16.594
		c0,7.273,4.732,13.397,11.253,15.627l-19.99,48.154L30.402,30.483c-0.18-0.229-0.42-0.38-0.632-0.569
		c4.105-3.021,6.799-7.845,6.799-13.326C36.569,7.442,29.127,0,19.981,0S3.388,7.442,3.388,16.588s7.442,16.588,16.594,16.588
		c0.051,0,0.105-0.017,0.157-0.017c-0.057,0.326-0.157,0.649-0.157,0.995v196.15c0,3.236,2.616,5.855,5.855,5.855h185.412
		c3.236,0,5.855-2.619,5.855-5.855V34.154c0-0.363-0.104-0.703-0.166-1.055C225.727,32.696,232.771,25.482,232.771,16.594z
		 M15.098,16.594c0-2.688,2.19-4.877,4.883-4.877c2.688,0,4.877,2.19,4.877,4.877c0,2.687-2.19,4.877-4.877,4.877
		C17.288,21.471,15.098,19.275,15.098,16.594z M143.536,11.71c2.688,0,4.884,2.19,4.884,4.877s-2.196,4.883-4.884,4.883
		s-4.883-2.19-4.883-4.877C138.653,13.906,140.849,11.71,143.536,11.71z M95.888,11.71c2.688,0,4.877,2.19,4.877,4.877
		s-2.19,4.883-4.877,4.883s-4.877-2.19-4.877-4.877C91.011,13.906,93.201,11.71,95.888,11.71z M67.624,95.399
		c1.301,1.61,3.362,2.419,5.395,2.127c2.047-0.3,3.783-1.647,4.578-3.551l18.326-44.143l17.168,44.025
		c0.866,2.228,3.005,3.703,5.392,3.731c0.026,0,0.042,0,0.065,0c2.359,0,4.503-1.424,5.41-3.608l18.326-44.143l17.171,44.028
		c0.755,1.941,2.499,3.337,4.563,3.66c2.058,0.32,4.14-0.486,5.454-2.116l35.933-44.635v135.626H31.692V50.764L67.624,95.399z
		 M31.692,224.455v-26.349h173.702v26.349H31.692z M216.184,21.471c-2.693,0-4.883-2.19-4.883-4.877
		c0-2.688,2.189-4.877,4.883-4.877c2.688,0,4.877,2.19,4.877,4.877C221.061,19.281,218.871,21.471,216.184,21.471z"/>
</g>
</svg>