<?xml version="1.0" encoding="utf-8"?><!-- Uploaded to: SVG Repo, www.svgrepo.com, Generator: SVG Repo Mixer Tools -->
<svg fill="#000000" xmlns="http://www.w3.org/2000/svg" 
	 width="800px" height="800px" viewBox="0 0 52 52" enable-background="new 0 0 52 52" xml:space="preserve">
<path d="M48.5,2h-45C2.7,2,2,2.7,2,3.5v32.4c0,0.8,0.7,1.5,1.5,1.5h45c0.8,0,1.5-0.7,1.5-1.5V3.5
	C50,2.7,49.3,2,48.5,2z"/>
<circle cx="20" cy="46" r="4"/>
<circle cx="8" cy="46" r="4"/>
<path d="M32,44c1.1,0,2,0.9,2,2c0,1.1-0.9,2-2,2c-1.1,0-2-0.9-2-2C30,44.9,30.9,44,32,44 M32,42c-2.2,0-4,1.8-4,4
	c0,2.2,1.8,4,4,4c2.2,0,4-1.8,4-4C36,43.8,34.2,42,32,42L32,42z"/>
<circle cx="44" cy="46" r="4"/>
</svg>